<svg width="16" height="16" viewBox="0 0 16 16" fill="none" xmlns="http://www.w3.org/2000/svg">
<path d="M13.5 6.50003H6.29998L13.2562 4.63753C13.3195 4.61989 13.3787 4.5898 13.4302 4.54902C13.4817 4.50824 13.5245 4.45759 13.5562 4.40003C13.5902 4.34443 13.6121 4.28236 13.6207 4.2178C13.6294 4.15323 13.6244 4.08758 13.6062 4.02503L13.0875 2.09378C13.0548 1.96678 12.9972 1.84756 12.918 1.74306C12.8388 1.63856 12.7396 1.55089 12.6262 1.48514C12.5127 1.4194 12.3873 1.37691 12.2573 1.36015C12.1272 1.34339 11.9951 1.3527 11.8687 1.38753L2.20623 3.97503C2.07899 4.00837 1.95964 4.06663 1.85509 4.14645C1.75055 4.22626 1.66288 4.32604 1.59719 4.43999C1.53149 4.55394 1.48907 4.67979 1.47238 4.81026C1.4557 4.94073 1.46508 5.07321 1.49998 5.20003L1.99998 7.06878V12.5C1.99998 12.7652 2.10534 13.0196 2.29287 13.2071C2.48041 13.3947 2.73477 13.5 2.99998 13.5H13C13.2652 13.5 13.5196 13.3947 13.7071 13.2071C13.8946 13.0196 14 12.7652 14 12.5V7.00003C14 6.86742 13.9473 6.74025 13.8535 6.64648C13.7598 6.55271 13.6326 6.50003 13.5 6.50003ZM10.5812 4.31878L6.23123 5.48128L4.39998 4.41878L8.74373 3.25628L10.5812 4.31878ZM13 12.5H2.99998V7.50003H13V12.5Z" fill="#FFE873"/>
</svg>
