<svg width="16" height="16" viewBox="0 0 16 16" fill="none" xmlns="http://www.w3.org/2000/svg">
<path d="M12.8437 6.25631L11.7812 4.41881C11.6918 4.26201 11.5722 4.12444 11.4294 4.01404C11.2866 3.90364 11.1233 3.82258 10.949 3.77553C10.7748 3.72847 10.5929 3.71636 10.4139 3.73987C10.235 3.76339 10.0624 3.82208 9.90619 3.91256C9.62764 4.07092 9.41485 4.32362 9.30619 4.62506L8.20619 2.73131C8.11676 2.57451 7.99719 2.43695 7.85437 2.32654C7.71155 2.21614 7.54831 2.13508 7.37404 2.08803C7.19976 2.04097 7.0179 2.02886 6.83893 2.05237C6.65995 2.07589 6.4874 2.13458 6.33119 2.22506C6.05264 2.38342 5.83985 2.63612 5.73119 2.93756C5.54041 2.6385 5.24188 2.4243 4.89746 2.33936C4.55305 2.25442 4.18915 2.30525 3.88119 2.48131C3.72492 2.57193 3.58814 2.69259 3.47872 2.83633C3.36931 2.98007 3.28943 3.14405 3.24369 3.31881C3.18888 3.51415 3.18032 3.71958 3.21869 3.91881C2.97458 3.93749 2.73765 4.01007 2.52494 4.13131C2.15174 4.34817 1.8797 4.7041 1.76841 5.12114C1.65712 5.53819 1.71565 5.98234 1.93119 6.35631L2.05619 6.56881C1.84175 6.59369 1.63507 6.664 1.44994 6.77506C1.07717 6.99072 0.805243 7.34553 0.693912 7.76156C0.582581 8.17758 0.64095 8.62079 0.856194 8.99381L3.16869 13.0001C3.66283 13.8574 4.40024 14.5488 5.28756 14.9868C6.17488 15.4247 7.1722 15.5896 8.15325 15.4604C9.13431 15.3313 10.055 14.9139 10.7987 14.2612C11.5424 13.6085 12.0758 12.7498 12.3312 11.7938L12.3499 11.7126C12.9814 10.9633 13.3675 10.0381 13.4558 9.06216C13.5441 8.08625 13.3304 7.10677 12.8437 6.25631ZM11.3624 11.5376C11.2284 12.0451 10.9947 12.5209 10.6749 12.9373C10.3552 13.3536 9.95575 13.7021 9.49994 13.9626C8.58155 14.4926 7.49026 14.6363 6.46595 14.3621C5.44164 14.0878 4.56814 13.4181 4.03744 12.5001L1.72494 8.49381C1.66271 8.38695 1.63357 8.26404 1.64121 8.14063C1.64885 8.01721 1.69293 7.89883 1.76787 7.80047C1.84281 7.70211 1.94524 7.6282 2.06221 7.58807C2.17917 7.54794 2.30541 7.54342 2.42494 7.57506C2.58523 7.62 2.72187 7.72528 2.80619 7.86881L4.30619 10.4688C4.35086 10.5437 4.41391 10.606 4.48938 10.6498C4.56484 10.6935 4.65023 10.7173 4.73744 10.7188C4.82506 10.7185 4.91106 10.6952 4.98683 10.6512C5.06259 10.6072 5.12546 10.544 5.16914 10.468C5.21281 10.3921 5.23576 10.306 5.23568 10.2184C5.23561 10.1307 5.2125 10.0447 5.16869 9.96881L2.79369 5.85631C2.71081 5.7121 2.68862 5.54087 2.73198 5.38029C2.77535 5.21971 2.88073 5.08294 3.02494 5.00006C3.16916 4.91718 3.34038 4.89498 3.50096 4.93835C3.66154 4.98171 3.79831 5.0871 3.88119 5.23131L6.25619 9.34381C6.28601 9.40598 6.32837 9.46131 6.3806 9.50632C6.43283 9.55133 6.4938 9.58506 6.55969 9.60537C6.62558 9.62569 6.69496 9.63216 6.76346 9.62438C6.83197 9.61659 6.89813 9.59472 6.95778 9.56014C7.01744 9.52556 7.06929 9.47902 7.11009 9.42344C7.15089 9.36785 7.17975 9.30443 7.19486 9.23716C7.20997 9.16988 7.21101 9.10021 7.1979 9.03252C7.18479 8.96483 7.15783 8.90058 7.11869 8.84381L5.24369 5.59381C5.16191 5.44935 5.14032 5.27849 5.1836 5.11823C5.22689 4.95797 5.33156 4.8212 5.47494 4.73756C5.61845 4.65608 5.78837 4.63466 5.94761 4.67798C6.10685 4.7213 6.24249 4.82585 6.32494 4.96881L8.94994 9.51881C8.99516 9.59463 9.0592 9.65749 9.13585 9.70129C9.2125 9.74509 9.29916 9.76835 9.38744 9.76881C9.47514 9.76663 9.56097 9.74303 9.63744 9.70006C9.75151 9.63347 9.83459 9.52445 9.86855 9.39681C9.90251 9.26917 9.88459 9.13328 9.81869 9.01881L8.81869 7.28131C8.73662 7.1395 8.71414 6.97092 8.75619 6.81256C8.77619 6.73217 8.81261 6.6568 8.86317 6.59119C8.91372 6.52557 8.97732 6.47114 9.04994 6.43131C9.11948 6.38898 9.19706 6.36157 9.27775 6.35081C9.35845 6.34005 9.44049 6.34618 9.51869 6.36881C9.59826 6.38876 9.673 6.42449 9.73849 6.47387C9.80398 6.52326 9.85888 6.5853 9.89994 6.65631L10.9624 8.50006C11.2271 8.9546 11.3987 9.4572 11.4674 9.97865C11.536 10.5001 11.5004 11.03 11.3624 11.5376ZM10.3124 1.54381L10.5687 0.575058C10.5855 0.511448 10.6147 0.451776 10.6546 0.399448C10.6945 0.34712 10.7443 0.303161 10.8012 0.27008C10.858 0.236999 10.9209 0.215444 10.9861 0.206647C11.0513 0.19785 11.1176 0.201982 11.1812 0.218808C11.2448 0.235633 11.3045 0.264823 11.3568 0.30471C11.4091 0.344597 11.4531 0.3944 11.4862 0.451276C11.5193 0.508152 11.5408 0.570986 11.5496 0.636192C11.5584 0.701398 11.5543 0.767699 11.5374 0.831308L11.2749 1.80006C11.2471 1.90628 11.1847 2.00021 11.0976 2.067C11.0104 2.13378 10.9035 2.1696 10.7937 2.16881L10.6624 2.15631C10.535 2.12122 10.4266 2.03709 10.361 1.9223C10.2954 1.80752 10.278 1.67143 10.3124 1.54381ZM11.9562 2.11881L12.5312 1.30006C12.608 1.1914 12.7246 1.11737 12.8556 1.09397C12.9866 1.07058 13.1215 1.09971 13.2312 1.17506C13.2852 1.21305 13.3311 1.26135 13.3663 1.31717C13.4015 1.373 13.4253 1.43524 13.4364 1.50032C13.4474 1.5654 13.4455 1.63202 13.4306 1.69633C13.4158 1.76065 13.3884 1.82139 13.3499 1.87506L12.7749 2.69381C12.7375 2.74758 12.6898 2.79337 12.6345 2.82851C12.5792 2.86365 12.5175 2.88744 12.4529 2.89849C12.3884 2.90955 12.3223 2.90764 12.2584 2.89288C12.1946 2.87813 12.1344 2.85083 12.0812 2.81256C11.973 2.73687 11.8991 2.62144 11.8756 2.49146C11.8522 2.36148 11.8812 2.22751 11.9562 2.11881ZM14.6999 3.46881L13.8812 4.04381C13.7956 4.09972 13.6959 4.13007 13.5937 4.13131C13.4882 4.13047 13.3857 4.09628 13.3008 4.03363C13.2159 3.97098 13.153 3.88309 13.1211 3.78252C13.0892 3.68195 13.0899 3.57387 13.1231 3.47374C13.1564 3.3736 13.2205 3.28656 13.3062 3.22506L14.1249 2.65006C14.1786 2.61163 14.2394 2.5842 14.3037 2.56937C14.368 2.55453 14.4346 2.55258 14.4997 2.56362C14.5648 2.57466 14.627 2.59847 14.6828 2.63369C14.7387 2.66891 14.787 2.71483 14.8249 2.76881C14.9003 2.8785 14.9294 3.01344 14.906 3.14445C14.8826 3.27545 14.8086 3.39198 14.6999 3.46881Z" fill="#FFE873"/>
</svg>
