<svg width="16" height="16" viewBox="0 0 16 16" fill="none" xmlns="http://www.w3.org/2000/svg">
<path d="M0.980919 7.09704L10.5116 2.9416C11.4524 2.50874 14.6429 1.1236 14.6429 1.1236C14.6429 1.1236 16.1154 0.517595 15.9927 1.98931C15.9518 2.59531 15.6246 4.71632 15.2974 7.01047L14.2748 13.8063C14.2748 13.8063 14.193 14.8019 13.4976 14.9751C12.8022 15.1482 11.6569 14.3691 11.4524 14.1959C11.2888 14.0661 8.38457 12.1182 7.32106 11.1659C7.03473 10.9062 6.7075 10.3868 7.36196 9.78076C8.83451 8.35233 10.5934 6.57761 11.6569 5.45218C12.1477 4.93275 12.6386 3.72075 10.5934 5.19246L4.82591 9.30462C4.82591 9.30462 4.17144 9.73748 2.94432 9.34791C1.71719 8.95833 0.285549 8.4389 0.285549 8.4389C0.285549 8.4389 -0.69615 7.78961 0.980919 7.09704Z" fill="white"/>
</svg>
