<svg width="16" height="16" viewBox="0 0 16 16" fill="none" xmlns="http://www.w3.org/2000/svg">
<path d="M8 11C10.7614 11 13 8.76142 13 6C13 3.23858 10.7614 1 8 1C5.23858 1 3 3.23858 3 6C3 8.76142 5.23858 11 8 11Z" fill="#FFE873"/>
<path d="M12.9501 10.95C13.0363 10.8549 13.0826 10.7303 13.0795 10.602C13.0763 10.4737 13.0239 10.3515 12.9332 10.2607C12.8424 10.17 12.7202 10.1176 12.5919 10.1144C12.4636 10.1113 12.339 10.1576 12.2439 10.2438C11.1184 11.3693 9.59186 12.0016 8.00015 12.0016C6.40843 12.0016 4.88191 11.3693 3.7564 10.2438C2.63089 9.11825 1.99858 7.59173 1.99858 6.00002C1.99858 4.4083 2.63089 2.88178 3.7564 1.75627C3.80659 1.71079 3.84702 1.65558 3.87524 1.59401C3.90345 1.53243 3.91885 1.46576 3.92052 1.39805C3.92219 1.33034 3.91008 1.26299 3.88493 1.2001C3.85979 1.13721 3.82212 1.08008 3.77423 1.03219C3.72633 0.984294 3.66921 0.946631 3.60632 0.921482C3.54342 0.896334 3.47608 0.884227 3.40837 0.885894C3.34065 0.887561 3.27399 0.902968 3.21241 0.931181C3.15083 0.959394 3.09563 0.999823 3.05015 1.05002C2.10148 1.99891 1.44552 3.20046 1.16038 4.51159C0.875237 5.82272 0.972928 7.18818 1.44182 8.44536C1.91071 9.70254 2.73104 10.7985 3.80513 11.6026C4.87922 12.4068 6.1618 12.8854 7.50015 12.9813V14H6.00015C5.86754 14 5.74036 14.0527 5.6466 14.1465C5.55283 14.2402 5.50015 14.3674 5.50015 14.5C5.50015 14.6326 5.55283 14.7598 5.6466 14.8536C5.74036 14.9473 5.86754 15 6.00015 15H10.0001C10.1328 15 10.2599 14.9473 10.3537 14.8536C10.4475 14.7598 10.5001 14.6326 10.5001 14.5C10.5001 14.3674 10.4475 14.2402 10.3537 14.1465C10.2599 14.0527 10.1328 14 10.0001 14H8.50015V12.9813C10.1801 12.8636 11.7607 12.1421 12.9501 10.95Z" fill="#FFE873"/>
</svg>
