<svg width="16" height="16" viewBox="0 0 16 16" fill="none" xmlns="http://www.w3.org/2000/svg">
<path fill-rule="evenodd" clip-rule="evenodd" d="M8 1C9.90111 1 10.1395 1.00798 10.8862 1.04201C11.6312 1.07604 12.14 1.19438 12.5853 1.36748C13.0457 1.54631 13.436 1.78565 13.8252 2.17484C14.2143 2.56402 14.4537 2.95433 14.6325 3.41465C14.8056 3.86 14.924 4.36878 14.958 5.11382C14.992 5.86054 15 6.09889 15 8C15 9.90111 14.992 10.1395 14.958 10.886C14.924 11.6311 14.8056 12.14 14.6325 12.5852C14.4537 13.0455 14.2143 13.436 13.8252 13.8252C13.436 14.2143 13.0457 14.4535 12.5853 14.6325C12.14 14.8056 11.6312 14.9238 10.8862 14.9578C10.1395 14.9919 9.90111 15 8 15C6.09889 15 5.86054 14.9919 5.11396 14.958C4.36892 14.924 3.86 14.8056 3.41479 14.6325C2.95447 14.4535 2.56402 14.2143 2.17484 13.8252C1.78565 13.4358 1.54631 13.0455 1.36748 12.5852C1.19438 12.14 1.07618 11.6311 1.04215 10.886C1.00798 10.1395 1 9.90111 1 8C1 6.09889 1.00784 5.86054 1.04201 5.11382C1.07604 4.36878 1.19424 3.86 1.36734 3.41465C1.54631 2.95433 1.78565 2.56402 2.17498 2.17484C2.5643 1.78565 2.95461 1.54631 3.41493 1.36748C3.86014 1.19438 4.36878 1.07604 5.11396 1.04201C5.86054 1.00798 6.09889 1 8 1ZM8 2.26124C6.13096 2.26124 5.90955 2.26825 5.17137 2.302C4.48894 2.33309 4.11824 2.44722 3.87162 2.54301C3.54489 2.67003 3.31172 2.8217 3.06678 3.06678C2.8217 3.31158 2.67003 3.54475 2.54301 3.87162C2.44722 4.1181 2.33323 4.4888 2.30214 5.17123C2.26839 5.90955 2.26124 6.13082 2.26124 8C2.26124 9.86904 2.26839 10.0904 2.30214 10.8286C2.33323 11.5111 2.44722 11.8818 2.54301 12.1284C2.67003 12.4551 2.8217 12.6883 3.06678 12.9332C3.31172 13.1783 3.54489 13.33 3.87162 13.457C4.11824 13.5528 4.48894 13.6668 5.17137 13.6979C5.90941 13.7315 6.13068 13.7388 8 13.7388C9.86932 13.7388 10.0906 13.7316 10.8286 13.6979C11.5111 13.6668 11.8818 13.5528 12.1284 13.457C12.4552 13.33 12.6884 13.1783 12.9334 12.9332C13.1783 12.6883 13.33 12.4551 13.457 12.1284C13.5528 11.8818 13.6669 11.5111 13.6979 10.8286C13.7316 10.0906 13.7388 9.86904 13.7388 8C13.7388 6.13082 13.7318 5.90955 13.698 5.17137C13.6669 4.4888 13.5528 4.11824 13.457 3.87162C13.33 3.54475 13.1783 3.31158 12.9332 3.06664C12.6884 2.8217 12.4552 2.67003 12.1284 2.54301C11.8819 2.44722 11.5111 2.33309 10.8286 2.302C10.0906 2.26839 9.86918 2.26124 8 2.26124ZM8.00224 4.42802C9.97379 4.42802 11.572 6.02621 11.572 7.99776C11.572 9.96931 9.97379 11.5675 8.00224 11.5675C6.03069 11.5675 4.4325 9.96931 4.4325 7.99776C4.4325 6.02621 6.03069 4.42802 8.00224 4.42802ZM8.00224 10.3149C9.28197 10.3149 10.3194 9.27749 10.3194 7.99776C10.3194 6.71803 9.28197 5.68058 8.00224 5.68058C6.72251 5.68058 5.68506 6.71803 5.68506 7.99776C5.68506 9.27749 6.72251 10.3149 8.00224 10.3149ZM12.5331 4.22215C12.5331 4.71511 12.1642 5.11466 11.7094 5.11466C11.2542 5.11466 10.8855 4.71511 10.8855 4.22215C10.8855 3.72919 11.2544 3.32979 11.7094 3.32979C12.1642 3.32979 12.5331 3.72933 12.5331 4.22215Z" fill="white"/>
</svg>
