<svg width="126" height="56" viewBox="0 0 126 56" fill="none" xmlns="http://www.w3.org/2000/svg">
<g clip-path="url(#clip0_3844_865)">
<path d="M115.035 16.9538C115.132 19.6328 116.314 20.9421 118.383 20.9421C119.78 20.9421 121.404 20.1455 122.804 19.2181L123.55 20.5602C122.054 22.068 119.097 23.7493 116.304 23.7493C113.28 23.7493 111.231 21.676 111.231 17.8459C111.231 12.136 115.835 7.22281 121.049 7.22281C123.778 7.22281 125.044 8.59248 125.044 10.5075C125.037 14.2647 120.292 16.1797 115.035 16.9538ZM119.325 9.61534C117.409 9.61534 115.523 12.0405 115.035 15.2624C118.936 14.6568 121.113 13.0609 121.113 11.2414C121.105 10.1808 120.455 9.6078 119.317 9.6078L119.325 9.61534ZM120.499 32.749C123.228 32.749 124.497 34.1211 124.497 36.0362C124.497 39.8059 119.752 41.7134 114.485 42.4799C114.582 45.1614 115.764 46.4683 117.833 46.4683C119.23 46.4683 120.857 45.6716 122.254 44.7467L123.001 46.0863C121.507 47.5942 118.55 49.2755 115.754 49.2755C112.733 49.2679 110.686 47.1945 110.686 43.3671C110.686 37.6546 115.291 32.7414 120.491 32.7414L120.499 32.749ZM120.563 36.77C120.563 35.717 119.913 35.1415 118.772 35.1415C116.856 35.1415 114.971 37.5667 114.482 40.7885C118.378 40.1753 120.555 38.5795 120.555 36.7624L120.563 36.77ZM102.572 23.1989L98.3155 23.5835L93.115 9.7611C92.4906 9.64163 91.8804 9.45974 91.2937 9.21826V7.59224H99.2568V9.18811C98.5521 9.44877 97.823 9.64069 97.08 9.7611L101.045 20.6104L105.058 9.83144C104.312 9.7033 103.337 9.5123 102.756 9.19313V7.59727H109.97V9.22329C109.372 9.49406 108.737 9.67697 108.085 9.76613L102.572 23.1989ZM86.8529 4.89061C86.3608 4.89011 85.8798 4.74627 85.4708 4.47728C85.0619 4.20828 84.7432 3.8262 84.5553 3.37933C84.3673 2.93247 84.3183 2.44088 84.4147 1.96671C84.511 1.49253 84.7482 1.05705 85.0964 0.715326C85.4446 0.373597 85.8881 0.140952 86.3709 0.0468027C86.8536 -0.0473463 87.3539 0.00122804 87.8086 0.186381C88.2632 0.371533 88.6518 0.684954 88.9252 1.08703C89.1986 1.4891 89.3445 1.96178 89.3445 2.4453C89.3438 3.09407 89.081 3.71603 88.6138 4.17454C88.1466 4.63306 87.5133 4.89061 86.8529 4.89061ZM88.0654 8.786C88.0654 9.10517 88.0015 9.58267 87.9682 9.90188L86.2441 20.3038C86.3373 20.4037 86.4228 20.5104 86.4999 20.6229H89.1654V21.867C87.6638 22.6561 84.6863 23.7393 83.571 23.7393C82.6629 23.7393 82.2075 23.1663 82.2075 22.2088C82.2075 21.9198 82.3047 21.3794 82.338 21.0904L84.0596 10.6884L83.8038 10.3692H81.1434V9.12528C82.6373 8.29594 85.6609 7.21276 86.6994 7.21276C87.6434 7.21528 88.0654 7.82095 88.0654 8.77846V8.786ZM71.8654 45.3776V35.5762H69.4609V33.342H71.8654L73.7507 29.13H75.4722V33.342H80.4144V35.5762H75.4722V44.121C75.4722 45.7822 76.2857 46.5161 77.6517 46.5161C78.679 46.4935 79.6976 46.3242 80.6753 46.0134L81.0308 47.6068C79.4704 48.3104 77.0019 49.2655 75.1167 49.2655C72.8093 49.2679 71.8654 47.8983 71.8654 45.3776ZM69.4711 19.849V10.0476H67.064V7.81341H69.4711L71.3564 3.60135H73.083V7.81341H78.0226V10.0476H73.083V18.5923C73.083 20.251 73.8965 20.9849 75.2599 20.9849C76.2873 20.9628 77.3059 20.7934 78.2835 20.4822L78.6416 22.078C77.0812 22.7792 74.6102 23.7367 72.7249 23.7367C70.4124 23.7393 69.4711 22.3696 69.4711 19.849ZM64.2987 39.5044L63.649 36.1543C62.9328 35.7723 61.7305 35.4858 60.3005 35.4858C57.6351 35.4858 55.783 37.245 55.783 40.6227C55.783 44.5784 58.1543 46.4935 61.6972 46.4935C63.2954 46.4626 64.8773 46.1713 66.3784 45.6314V47.8933C65.3066 48.5291 62.6411 49.2629 60.1701 49.2629C54.8417 49.2629 52.2402 46.3929 52.2402 41.9244C52.2402 36.6595 56.044 32.7364 61.4696 32.7364C63.516 32.7364 65.4678 33.3094 66.7033 34.0759C66.6735 35.8225 66.4886 37.5631 66.1508 39.2781L64.2987 39.5044ZM59.1827 23.7418C58.3385 23.7418 57.9164 23.2391 57.9164 22.3696C57.9164 21.382 59.3131 15.9561 59.3131 15.9561H58.955C56.397 21.5076 54.5015 23.7468 52.033 23.7468C49.92 23.7468 48.1652 21.6081 48.1652 18.4516C48.1652 12.5808 52.7697 7.2203 57.5916 7.2203C58.5052 7.213 59.4111 7.38384 60.257 7.72293C60.5116 7.2212 60.9053 6.8004 61.3928 6.50908L63.6183 6.92627L61.4747 20.3289L61.7305 20.6155H64.5264V21.8921C63.4444 22.4651 60.3568 23.7393 59.1852 23.7393L59.1827 23.7418ZM56.3867 9.54246C53.7545 9.54246 51.9997 13.3122 51.9997 16.9462C51.9997 19.306 52.6188 20.716 53.821 20.716C54.7624 20.716 57.4611 16.3129 59.5408 10.314C58.7299 9.7988 57.3 9.54246 56.3893 9.54246H56.3867ZM46.7916 45.8551L47.0474 46.1415H49.8433V47.4182C48.7689 47.9938 45.6814 49.2679 44.5123 49.2679C43.6656 49.2679 43.2333 48.7653 43.2333 47.8983C43.2333 46.9081 44.6326 41.4847 44.6326 41.4847H44.2745C41.7164 47.0363 39.8209 49.2755 37.3499 49.2755C35.2395 49.2755 33.4821 47.1393 33.4821 43.9802C33.4821 38.1095 38.0994 32.749 42.9085 32.749C43.8219 32.7428 44.7277 32.9136 45.5739 33.2516C45.8345 32.7446 46.2375 32.3215 46.7353 32.0327L48.9454 32.4474L46.7916 45.8551ZM41.7215 35.0711C39.0893 35.0711 37.3345 38.8408 37.3345 42.4724C37.3345 44.8347 37.951 46.242 39.1533 46.242C40.0972 46.242 42.7934 41.8391 44.8756 35.8401C44.0621 35.3249 42.6424 35.0711 41.7215 35.0711ZM35.6436 16.9538C35.7409 19.6328 36.9227 20.9421 38.9921 20.9421C40.3888 20.9421 42.0132 20.1455 43.4124 19.2181L44.1593 20.5602C42.6629 22.068 39.7058 23.7493 36.9124 23.7493C33.8888 23.7493 31.8398 21.676 31.8398 17.8459C31.8398 12.136 36.4571 7.22281 41.6576 7.22281C44.387 7.22281 45.6532 8.59248 45.6532 10.5075C45.6532 14.2647 40.9081 16.1797 35.6436 16.9538ZM39.9335 9.61534C38.0175 9.61534 36.1322 12.0405 35.6436 15.2624C39.5447 14.6568 41.7215 13.0609 41.7215 11.2414C41.7215 10.1808 41.0718 9.6078 39.9335 9.6078V9.61534ZM31.7478 36.8002H30.2129C29.4605 36.7875 28.7156 36.9485 28.0381 37.2702C27.3606 37.5919 26.7693 38.0653 26.3119 38.6524V46.6291C27.4666 46.7094 28.6045 46.9454 29.6937 47.3303V48.9261H20.3031V47.2976C21.0876 46.9857 21.9054 46.7615 22.7409 46.6291V36.4106C21.849 36.2361 21.0129 35.8534 20.3031 35.2947V34.0382L25.4703 32.7942H26.1533L25.8975 36.8781H26.0919C27.2942 34.0709 28.7574 32.8269 30.9343 32.8269C31.4139 32.8075 31.8919 32.8933 32.3336 33.0782L31.7478 36.8002ZM27.9798 11.2665C27.2277 11.2539 26.483 11.4148 25.8056 11.7359C25.1281 12.0572 24.5367 12.5299 24.0788 13.1162V21.0929C25.2325 21.1756 26.3693 21.4122 27.4579 21.7966V23.3925H18.0648V21.764C18.8497 21.4524 19.6673 21.2273 20.5026 21.0929V10.8845C19.6105 10.7092 18.7744 10.3255 18.0648 9.76613V8.52212L23.2346 7.2781H23.9151L23.6593 11.362H23.8537C25.0559 8.55479 26.5191 7.31078 28.696 7.31078C29.1756 7.29256 29.6533 7.37835 30.0953 7.56209L29.5095 11.264L27.9798 11.2665ZM9.10149 49.3332C8.09314 49.3394 7.0952 49.1329 6.17509 48.7276V53.3216C7.14244 53.4314 8.09253 53.6566 9.00428 53.9926V55.6187H0V53.9926C0.791052 53.666 1.62153 53.4405 2.47106 53.3216V36.4106C1.65761 36.2498 0.552533 35.7723 0.0332518 35.2947V34.0382L5.29513 32.8042H5.94487V34.8474C6.98599 34.2091 9.16288 32.7414 11.9256 32.7414C15.2101 32.7414 17.7451 35.0032 17.7451 39.7933C17.7476 45.8551 13.8799 49.3332 9.10149 49.3332ZM9.42635 35.6441C8.28874 35.6766 7.17492 35.9719 6.17509 36.5061V45.6314C7.30295 46.2985 8.59861 46.6416 9.91494 46.6216C12.7083 46.6216 14.2048 44.9931 14.2048 41.452C14.2048 37.6873 12.2018 35.6441 9.42635 35.6441ZM12.2862 13.9782L11.6365 10.6281C10.9202 10.2461 9.71797 9.9571 8.28803 9.9571C5.62256 9.9571 3.77054 11.7164 3.77054 15.0965C3.77054 19.0523 6.1444 20.9673 9.68727 20.9673C11.2846 20.9362 12.8657 20.6449 14.3659 20.1053V22.3671C13.2941 23.0055 10.6286 23.7393 8.15757 23.7393C2.82919 23.7393 0.227665 20.8668 0.227665 16.4008C0.227665 11.1358 4.03146 7.21276 9.45961 7.21276C11.506 7.21276 13.4553 7.78576 14.6908 8.55228C14.6611 10.298 14.4762 12.0378 14.1383 13.752L12.2862 13.9782ZM85.6609 27.8583L88.4747 25.0939L91.2886 27.8583L88.4747 30.6229L85.6609 27.8583ZM88.6077 32.7414C89.5517 32.7414 89.9737 33.3471 89.9737 34.3046C89.9737 34.6238 89.9072 35.1013 89.8765 35.4204L88.1524 45.8224C88.245 45.9229 88.3305 46.0295 88.4082 46.1415H91.0737V47.3855C89.5772 48.1848 86.5869 49.2679 85.4818 49.2679C84.5737 49.2679 84.1184 48.695 84.1184 47.7374C84.1184 47.451 84.2156 46.9081 84.2489 46.6216L85.9704 36.2196L85.7146 35.9004H83.0594V34.6564C84.5456 33.8271 87.5692 32.7414 88.6077 32.7414ZM102.718 32.7414C104.764 32.7414 106.716 33.3144 107.952 34.0809C107.922 35.8275 107.737 37.5681 107.399 39.2831L105.547 39.5044L104.895 36.1543C104.181 35.7723 102.979 35.4858 101.549 35.4858C98.8834 35.4858 97.0288 37.245 97.0288 40.6227C97.0288 44.5784 99.4026 46.4935 102.946 46.4935C104.544 46.4624 106.126 46.1711 107.627 45.6314V47.8933C106.552 48.5291 103.887 49.2629 101.418 49.2629C96.0874 49.2629 93.4885 46.3929 93.4885 41.9244C93.4885 36.6645 97.2897 32.7414 102.718 32.7414Z" fill="white"/>
</g>
<defs>
<clipPath id="clip0_3844_865">
<rect width="126" height="56" fill="white"/>
</clipPath>
</defs>
</svg>
